<svg width="12" height="13" viewBox="0 0 12 13" fill="none" xmlns="http://www.w3.org/2000/svg">
<path d="M6.25 12.5C7.07031 12.5 7.72656 11.8438 7.72656 11H4.75C4.75 11.8438 5.40625 12.5 6.25 12.5ZM11.2891 9.00781C10.8438 8.51562 9.97656 7.78906 9.97656 5.375C9.97656 3.57031 8.71094 2.11719 6.97656 1.74219V1.25C6.97656 0.851562 6.64844 0.5 6.25 0.5C5.82812 0.5 5.5 0.851562 5.5 1.25V1.74219C3.76562 2.11719 2.5 3.57031 2.5 5.375C2.5 7.78906 1.63281 8.51562 1.1875 9.00781C1.04688 9.14844 0.976562 9.33594 1 9.5C1 9.89844 1.28125 10.25 1.75 10.25H10.7266C11.1953 10.25 11.4766 9.89844 11.5 9.5C11.5 9.33594 11.4297 9.14844 11.2891 9.00781Z" fill="#A66FA6"/>
</svg>
