<svg width="30" height="23" viewBox="0 0 30 23" fill="none" xmlns="http://www.w3.org/2000/svg">
<path d="M14.6719 6.40039L5.6875 13.8223V21.7812C5.6875 22.2207 6.0293 22.5625 6.46875 22.5625H11.9375C12.3281 22.5625 12.6699 22.2207 12.6699 21.7812V17.0938C12.6699 16.7031 13.0605 16.3125 13.4512 16.3125H16.5762C17.0156 16.3125 17.3574 16.7031 17.3574 17.0938V21.7812C17.3574 22.2207 17.748 22.5625 18.1387 22.5625H23.6562C24.0469 22.5625 24.4375 22.2207 24.4375 21.7812V13.7734L15.4043 6.40039C15.3066 6.30273 15.1602 6.25391 15.0625 6.25391C14.916 6.25391 14.7695 6.30273 14.6719 6.40039ZM28.8809 11.4297L24.8281 8.06055V1.32227C24.8281 0.980469 24.5352 0.736328 24.2422 0.736328H21.5078C21.166 0.736328 20.9219 0.980469 20.9219 1.32227V4.83789L16.5273 1.22461C16.1367 0.931641 15.5996 0.736328 15.0625 0.736328C14.4766 0.736328 13.9395 0.931641 13.5488 1.22461L1.19531 11.4297C1.04883 11.5273 0.951172 11.7227 0.951172 11.8691C0.951172 12.0156 1.04883 12.1621 1.09766 12.2598L2.36719 13.7734C2.46484 13.9199 2.61133 13.9688 2.80664 13.9688C2.95312 13.9688 3.09961 13.9199 3.19727 13.8223L14.6719 4.39844C14.7695 4.30078 14.916 4.25195 15.0625 4.25195C15.1602 4.25195 15.3066 4.30078 15.4043 4.39844L26.8789 13.8223C26.9766 13.9199 27.123 13.9688 27.2695 13.9688C27.4648 13.9688 27.6113 13.9199 27.709 13.7734L28.9785 12.2598C29.0762 12.1621 29.125 12.0156 29.125 11.8691C29.125 11.7227 29.0273 11.5273 28.8809 11.4297Z" fill="#844B84"/>
</svg>
