<svg width="41" height="32" viewBox="0 0 41 32" fill="none" xmlns="http://www.w3.org/2000/svg">
<path d="M29.4375 11.5C29.4375 5.48438 23.0117 0.5625 15.2188 0.5625C7.35742 0.5625 1 5.48438 1 11.5C1 13.8926 1.95703 16.0117 3.59766 17.7891C2.64062 19.9082 1.13672 21.5488 1.13672 21.5488C1 21.6855 0.931641 21.959 1 22.1641C1.13672 22.3691 1.27344 22.4375 1.54688 22.4375C4.00781 22.4375 6.05859 21.6172 7.5625 20.7285C9.75 21.8223 12.416 22.4375 15.2188 22.4375C23.0117 22.4375 29.4375 17.584 29.4375 11.5ZM37.7773 26.5391C39.3496 24.7617 40.375 22.6426 40.375 20.25C40.375 15.7383 36.6836 11.7734 31.4883 10.1328C31.5566 10.6113 31.625 11.0898 31.625 11.5C31.625 18.7461 24.2422 24.625 15.2188 24.625C14.4668 24.625 13.7148 24.625 13.0312 24.5566C15.1504 28.4531 20.209 31.1875 26.1562 31.1875C28.959 31.1875 31.5566 30.5723 33.7441 29.4785C35.248 30.3672 37.2988 31.1875 39.8281 31.1875C40.0332 31.1875 40.2383 31.1191 40.3066 30.9141C40.375 30.709 40.375 30.4355 40.1699 30.2988C40.1699 30.2988 38.666 28.6582 37.7773 26.5391Z" fill="#A66FA6"/>
</svg>
