<svg width="41" height="32" viewBox="0 0 41 32" fill="none" xmlns="http://www.w3.org/2000/svg">
<path d="M20.1406 8.56055L7.5625 18.9512V30.0938C7.5625 30.709 8.04102 31.1875 8.65625 31.1875H16.3125C16.8594 31.1875 17.3379 30.709 17.3379 30.0938V23.5312C17.3379 22.9844 17.8848 22.4375 18.4316 22.4375H22.8066C23.4219 22.4375 23.9004 22.9844 23.9004 23.5312V30.0938C23.9004 30.709 24.4473 31.1875 24.9941 31.1875H32.7188C33.2656 31.1875 33.8125 30.709 33.8125 30.0938V18.8828L21.166 8.56055C21.0293 8.42383 20.8242 8.35547 20.6875 8.35547C20.4824 8.35547 20.2773 8.42383 20.1406 8.56055ZM40.0332 15.6016L34.3594 10.8848V1.45117C34.3594 0.972656 33.9492 0.630859 33.5391 0.630859H29.7109C29.2324 0.630859 28.8906 0.972656 28.8906 1.45117V6.37305L22.7383 1.31445C22.1914 0.904297 21.4395 0.630859 20.6875 0.630859C19.8672 0.630859 19.1152 0.904297 18.5684 1.31445L1.27344 15.6016C1.06836 15.7383 0.931641 16.0117 0.931641 16.2168C0.931641 16.4219 1.06836 16.627 1.13672 16.7637L2.91406 18.8828C3.05078 19.0879 3.25586 19.1562 3.5293 19.1562C3.73438 19.1562 3.93945 19.0879 4.07617 18.9512L20.1406 5.75781C20.2773 5.62109 20.4824 5.55273 20.6875 5.55273C20.8242 5.55273 21.0293 5.62109 21.166 5.75781L37.2305 18.9512C37.3672 19.0879 37.5723 19.1562 37.7773 19.1562C38.0508 19.1562 38.2559 19.0879 38.3926 18.8828L40.1699 16.7637C40.3066 16.627 40.375 16.4219 40.375 16.2168C40.375 16.0117 40.2383 15.7383 40.0332 15.6016Z" fill="#4E1C4E"/>
</svg>
