<svg width="34" height="35" viewBox="0 0 34 35" fill="none" xmlns="http://www.w3.org/2000/svg">
<path d="M16.9531 0.921875C7.58789 0.921875 0 8.50977 0 17.875C0 27.2402 7.58789 34.8281 16.9531 34.8281C26.3184 34.8281 33.9062 27.2402 33.9062 17.875C33.9062 8.50977 26.3184 0.921875 16.9531 0.921875ZM16.9531 7.48438C20.2344 7.48438 22.9688 10.2188 22.9688 13.5C22.9688 16.8496 20.2344 19.5156 16.9531 19.5156C13.6035 19.5156 10.9375 16.8496 10.9375 13.5C10.9375 10.2188 13.6035 7.48438 16.9531 7.48438ZM16.9531 31C12.9199 31 9.29688 29.2227 6.9043 26.3516C8.20312 23.959 10.7324 22.25 13.6719 22.25C13.8086 22.25 13.9453 22.3184 14.1504 22.3867C15.0391 22.6602 15.9277 22.7969 16.9531 22.7969C17.9102 22.7969 18.8672 22.6602 19.6875 22.3867C19.8926 22.3184 20.0293 22.25 20.2344 22.25C23.1055 22.25 25.6348 23.959 26.9336 26.3516C24.541 29.2227 20.918 31 16.9531 31Z" fill="#E8E8E8"/>
</svg>
